<?xml version="1.0" encoding="utf-8"?>
<!-- Generator: Adobe Illustrator 21.0.0, SVG Export Plug-In . SVG Version: 6.00 Build 0)  -->
<svg version="1.1" id="Layer_1" xmlns="http://www.w3.org/2000/svg" xmlns:xlink="http://www.w3.org/1999/xlink" x="0px" y="0px"
	 viewBox="0 0 82.8 76.2" style="enable-background:new 0 0 82.8 76.2;" xml:space="preserve">
<g id="code.1" transform="matrix(0.966, -0.259, 0.259, 0.966, -14041.608, 6244.384)">
	<g id="Icon-Set" transform="translate(-0.003 -0.009)">
		<path id="code" d="M15242.1-2348.3l-13.9-11.2c-0.9-0.9-2.4-0.9-3.3,0c-0.9,0.9-0.9,2.3-0.1,3.2c0,0,0,0,0.1,0.1l12,9.7l-12,9.7
			c-0.9,0.9-0.9,2.3-0.1,3.2c0,0,0,0,0.1,0.1c0.9,0.9,2.4,0.9,3.3,0l13.9-11.2C15243-2345.8,15243-2347.3,15242.1-2348.3
			L15242.1-2348.3z M15191.1-2336.8l-12-9.7l12-9.7c0.9-0.9,0.9-2.3,0.1-3.2c0,0,0,0-0.1-0.1c-0.9-0.9-2.4-0.9-3.3,0l-13.9,11.2
			c-0.9,1-0.9,2.5,0,3.5l13.9,11.2c0.9,0.9,2.4,0.9,3.3,0C15192-2334.5,15192-2335.9,15191.1-2336.8
			C15191.1-2336.8,15191.1-2336.8,15191.1-2336.8z M15224.1-2377c-1.1-0.6-2.5-0.3-3.2,0.8l-29,55.8c-0.6,1.1-0.4,2.7,0.8,3.1
			c1.5,0.4,2.5,0.3,3.2-0.8l29-55.8C15225.6-2375,15225.2-2376.4,15224.1-2377C15224.2-2377,15224.1-2377,15224.1-2377L15224.1-2377
			z" fill="#241430" opacity="0.8"/>
	</g>
</g>
</svg>
