<svg xmlns="http://www.w3.org/2000/svg" viewBox="-3454 5618.113 239.77 239.387">
  <defs>
    <style>
      .cls-1 {
        fill: #ee5656;
      }

      .cls-2 {
        fill: #522f8f;
      }

      .cls-3 {
        fill: #fff100;
      }
    </style>
  </defs>
  <g id="_004-target" data-name="004-target" transform="translate(-3454 5617.713)">
    <g id="Group_355" data-name="Group 355" transform="translate(36.423 13.963)">
      <circle id="Ellipse_68" data-name="Ellipse 68" class="cls-1" cx="23.004" cy="23.004" r="23.004" transform="translate(49.842 95.084)"/>
      <circle id="Ellipse_69" data-name="Ellipse 69" class="cls-2" cx="23.004" cy="23.004" r="23.004" transform="translate(49.842 95.084)"/>
      <path id="Path_625" data-name="Path 625" class="cls-2" d="M148.846,123.1a72.846,72.846,0,1,0,72.846,72.846A72.814,72.814,0,0,0,148.846,123.1Zm0,118.855a46.008,46.008,0,1,1,46.008-46.008A46.144,46.144,0,0,1,148.846,241.955Z" transform="translate(-76 -77.859)"/>
      <path id="Path_626" data-name="Path 626" class="cls-2" d="M420.269,28.7l.383,12.269L408.383,53.238,408,42.119Z" transform="translate(-248.888 -28.7)"/>
      <path id="Path_627" data-name="Path 627" class="cls-2" d="M445.338,67.483,431.919,79.752,420.8,79.369c6.134-6.134,9.968-9.968,11.885-12.269Z" transform="translate(-255.554 -48.697)"/>
    </g>
    <g id="Group_356" data-name="Group 356" transform="translate(0 0.4)">
      <path id="Path_628" data-name="Path 628" class="cls-3" d="M319.836,26.232l-.383-12.269L307.183,27.382l.383,11.119Zm4.6,18.787L337.855,32.75,325.2,32.366a149.929,149.929,0,0,1-11.885,12.269Zm25.688-13.036L328.654,51.536a3.481,3.481,0,0,1-2.684,1.15h0l-20.7-.767L295.681,61.5l-74.763,74.38a4.142,4.142,0,0,1-2.684,1.15,3.481,3.481,0,0,1-2.684-1.15,3.706,3.706,0,0,1,0-5.368l69.4-69.4,15.336-14.953-.767-19.937a3.481,3.481,0,0,1,1.15-2.684l19.17-21.854a4.327,4.327,0,0,1,4.217-1.15c1.534.383,2.3,1.917,2.684,3.451l.767,14.569,5.751-5.751a3.8,3.8,0,0,1,5.368,5.368L332.488,24.7l15.336.767a3.683,3.683,0,0,1,3.451,2.684A3.89,3.89,0,0,1,350.124,31.983Z" transform="translate(-111.648 -0.4)"/>
      <path id="Path_629" data-name="Path 629" class="cls-3" d="M353.981,233.673a70.266,70.266,0,0,0-9.2-34.506,3.547,3.547,0,0,1,.767-4.6h0a3.778,3.778,0,0,1,6.134.767,76.089,76.089,0,0,1-1.917,79.748c-1.15,1.917-4.217,2.3-6.134.767a4.019,4.019,0,0,1-.383-4.984A68.137,68.137,0,0,0,353.981,233.673Z" transform="translate(-178.382 -100.872)"/>
      <path id="Path_630" data-name="Path 630" class="cls-3" d="M269.422,241.337c-.383-1.534-.383-3.067.767-3.834l.383-.383a3.833,3.833,0,0,1,6.134,1.15,45.208,45.208,0,0,1,3.451,17.636A48.977,48.977,0,0,1,242.2,303.831a3.785,3.785,0,0,1-4.6-3.451V300a3.357,3.357,0,0,1,3.067-3.451,41.9,41.9,0,0,0,31.822-40.641A47.07,47.07,0,0,0,269.422,241.337Z" transform="translate(-123.73 -123.105)"/>
      <path id="Path_631" data-name="Path 631" class="cls-3" d="M196.914,182.7a3.89,3.89,0,0,1-3.834-1.15h0A3.8,3.8,0,0,1,195,175.034a59.266,59.266,0,0,1,11.885-1.534,47.481,47.481,0,0,1,21.087,4.984,4.054,4.054,0,0,1,1.15,6.134h0a3.592,3.592,0,0,1-4.217.767,39.5,39.5,0,0,0-17.636-3.834A40.6,40.6,0,0,0,196.914,182.7Z" transform="translate(-99.914 -90.541)"/>
      <path id="Path_632" data-name="Path 632" class="cls-3" d="M166.4,248.338A26.917,26.917,0,0,1,193.238,221.5a22.494,22.494,0,0,1,8.818,1.534l-6.518,6.518c-.767,0-1.534-.383-2.3-.383a18.9,18.9,0,0,0-18.787,19.17c0,10.352,8.435,19.17,18.787,19.17a19.026,19.026,0,0,0,18.787-16.486l7.668-7.285a21.862,21.862,0,0,1,.383,4.984,26.917,26.917,0,0,1-26.838,26.838C178.669,275.176,166.4,262.907,166.4,248.338Z" transform="translate(-86.652 -115.537)"/>
      <path id="Path_633" data-name="Path 633" class="cls-3" d="M119.2,234.116a50.378,50.378,0,0,1,19.17-39.107,3.585,3.585,0,0,1,4.984.383h0a3.86,3.86,0,0,1-.383,5.751,42.377,42.377,0,0,0-16.1,32.973,41.635,41.635,0,0,0,29.905,39.874,4.128,4.128,0,0,1,3.067,3.834,3.835,3.835,0,0,1-4.984,3.834A49.805,49.805,0,0,1,119.2,234.116Z" transform="translate(-62.073 -101.315)"/>
      <path id="Path_634" data-name="Path 634" class="cls-3" d="M71.788,168.109a76.915,76.915,0,0,1,72.08-50.609,78.44,78.44,0,0,1,41.791,12.269,4.321,4.321,0,0,1,.767,6.134h0a4.019,4.019,0,0,1-4.984.383A68.888,68.888,0,0,0,79.072,170.793a3.683,3.683,0,0,1-3.451,2.684h0C72.554,173.093,71.021,170.409,71.788,168.109Z" transform="translate(-37.281 -61.38)"/>
      <path id="Path_635" data-name="Path 635" class="cls-3" d="M63.147,292.917a3.727,3.727,0,0,1,3.834-4.217h0a4.077,4.077,0,0,1,3.834,3.451c4.6,33.739,33.356,60.194,68.629,60.194a70.265,70.265,0,0,0,42.941-14.953,3.585,3.585,0,0,1,4.984.383h0a3.86,3.86,0,0,1-.383,5.751A76.461,76.461,0,0,1,63.147,292.917Z" transform="translate(-32.858 -150.531)"/>
      <path id="Path_636" data-name="Path 636" class="cls-3" d="M191.7,97.658a105.481,105.481,0,0,1,21.471,64.028c0,58.661-47.925,106.586-106.586,106.586S0,220.346,0,161.686,47.925,55.1,106.586,55.1A106.88,106.88,0,0,1,173.3,78.488l-5.368,5.368a97.76,97.76,0,0,0-61.344-21.471c-54.443.383-98.918,44.858-98.918,99.3S52.143,260.6,106.586,260.6,205.5,216.129,205.5,161.686a98.274,98.274,0,0,0-19.17-58.277Z" transform="translate(0 -28.885)"/>
    </g>
  </g>
</svg>
