<?xml version="1.0" encoding="utf-8"?>
<!-- Generator: Adobe Illustrator 21.0.0, SVG Export Plug-In . SVG Version: 6.00 Build 0)  -->
<svg version="1.1" id="Layer_1" xmlns="http://www.w3.org/2000/svg" xmlns:xlink="http://www.w3.org/1999/xlink" x="0px" y="0px"
	 viewBox="0 0 167.8 134.7" style="enable-background:new 0 0 167.8 134.7;" xml:space="preserve">
<style type="text/css">
	.st0{fill:#FFF100;}
</style>
<g>
	<path class="st0" d="M64.5,124.2c-0.3,0-0.6,0-0.8,0c-8,0-15.9,0.1-23.9,0c-10.4-0.1-19.3-3.9-26.8-11.1c-5.9-5.8-9.7-12.8-11.1-21
		c-2.1-12.3,1-23.3,9.2-32.7c5.9-6.8,13.5-11,22.4-12.6c2.3-0.4,4.7-0.5,7.1-0.6c2.1-0.1,4.2,0,6.4,0c0.5,0,0.8-0.1,1-0.7
		c1.1-3.3,2.3-6.5,3.9-9.6C60.6,18.8,74.6,8,93.5,3.7c4.9-1.1,9.9-1.5,15-1.3c15.1,0.7,28.3,6.2,39.3,16.5c9.4,8.7,15.3,19.5,18,32
		c1.3,5.9,1.6,11.9,1,17.8c-1.3,14-6.8,26.1-16.4,36.4c-8.6,9.1-19.1,15-31.3,17.7c-0.1,0-0.2,0.1-0.3,0.1c-0.1,0-0.1,0-0.2,0
		c0-0.2,0-0.4,0-0.6c0-1.1,0-2.3,0-3.4c0-0.6,0.2-0.7,0.7-0.8c4.3-1,8.4-2.4,12.2-4.4c16-8.4,25.9-21.4,29.9-38.9
		c1-4.3,1.3-8.6,1.1-13c-0.6-14.2-5.6-26.6-15.4-37c-8.4-8.9-18.8-14.5-30.8-16.7c-5-0.9-10.1-1.1-15.2-0.6C89.3,8.3,79,12.6,70,20
		c-9.6,8-15.8,18.2-18.7,30.3c-0.1,0.5-0.3,0.6-0.7,0.6c-3.7,0-7.3-0.1-11,0c-7.8,0.1-14.7,2.6-20.8,7.5C12,63.9,7.8,70.9,6.4,79.5
		c-1.7,10.3,0.9,19.6,7.6,27.6c5.5,6.6,12.6,10.6,21.1,12c1.9,0.3,3.8,0.4,5.7,0.4c7.7,0,15.3,0,23,0c0.8,0,0.8,0,0.8,0.8
		C64.5,121.5,64.5,122.8,64.5,124.2z"/>
	<path class="st0" d="M89,69c-0.1,0.2-0.3,0.4-0.4,0.6C82.9,75.3,77.2,81,71.6,86.7c-0.7,0.7-1.5,1.2-2.6,0.9
		c-1.7-0.5-2.3-2.5-1.2-3.8c0.1-0.2,0.3-0.3,0.4-0.5c7.2-7.2,14.4-14.4,21.6-21.6c1-1,2.4-1.1,3.4,0c7.2,7.2,14.5,14.5,21.7,21.7
		c0.8,0.8,1,1.7,0.6,2.6c-0.4,0.9-1.3,1.5-2.3,1.5c-0.6,0-1.1-0.4-1.5-0.8C106,81,100.3,75.3,94.6,69.6c-0.2-0.2-0.4-0.3-0.7-0.6
		c0,0.4,0,0.7,0,1c0,19.6,0,39.3,0,58.9c0,1.5-1,2.6-2.4,2.6c-1.2,0-2.2-1-2.3-2.3c0-0.2,0-0.4,0-0.6c0-19.5,0-39,0-58.5
		c0-0.3,0-0.5,0-0.8C89.2,69.1,89.1,69.1,89,69z"/>
</g>
</svg>
