<?xml version="1.0" encoding="utf-8"?>
<!-- Generator: Adobe Illustrator 21.0.0, SVG Export Plug-In . SVG Version: 6.00 Build 0)  -->
<svg version="1.1" id="Layer_1" xmlns="http://www.w3.org/2000/svg" xmlns:xlink="http://www.w3.org/1999/xlink" x="0px" y="0px"
	 viewBox="0 0 68.8 71" style="enable-background:new 0 0 68.8 71;" xml:space="preserve">
<g id="desktop" transform="translate(-14602.816 6281.964)">
	<g id="Icon-Set">
		<path id="desktop-2" d="M14667.2-6242h-59.9v-31.1c0-2.5,2-4.4,4.4-4.4h51.1c2.5,0,4.4,2,4.4,4.4L14667.2-6242L14667.2-6242z
			 M14667.2-6233.1c0,2.5-2,4.4-4.4,4.4h-51.1c-2.5,0-4.4-2-4.4-4.4v-4.4h59.9V-6233.1L14667.2-6233.1z M14633.9-6224.2h8.9v8.9
			h-8.9V-6224.2z M14662.8-6282h-51.1c-4.9,0-8.9,4-8.9,8.9v40c0,4.9,4,8.9,8.9,8.9h17.8v8.9h-4.4c-1.2,0-2.2,1-2.2,2.2
			s1,2.2,2.2,2.2h26.6c1.2,0,2.2-1,2.2-2.2s-1-2.2-2.2-2.2h-4.4v-8.9h15.5c4.9,0,8.9-4,8.9-8.9v-40
			C14671.6-6278,14667.7-6282,14662.8-6282C14662.8-6282,14662.8-6282,14662.8-6282z" fill="#241430" opacity="0.8"/>
	</g>
</g>
</svg>
