<?xml version="1.0" encoding="utf-8"?>
<!-- Generator: Adobe Illustrator 21.0.0, SVG Export Plug-In . SVG Version: 6.00 Build 0)  -->
<svg version="1.1" id="Layer_1" xmlns="http://www.w3.org/2000/svg" xmlns:xlink="http://www.w3.org/1999/xlink" x="0px" y="0px"
	 viewBox="0 0 146.6 146.6" style="enable-background:new 0 0 146.6 146.6;" xml:space="preserve">
<style type="text/css">
	.st0{fill:#FDEF01;}
</style>
<g>
	<path class="st0" d="M51,115.5c-0.3,1.3-0.2,2.6-0.2,3.8c0,0.6,0,0.6-0.6,0.6c-0.7,0-1.5,0-2.2,0c-8.3,0-16.7,0-25,0
		c-3.8,0-7.2-1-10.4-3.1c-4.9-3.2-7.8-7.8-8.6-13.6c-0.1-0.8-0.2-1.7-0.2-2.5c0-25.6,0-51.3,0-76.9c0-9.3,6.8-17.3,15.9-18.8
		c1.1-0.2,2.1-0.3,3.2-0.3c33.7,0,67.4,0,101.2,0c6.7,0,12.1,2.7,16.1,8.1c2.4,3.3,3.5,7,3.5,11c0,2.2,0,4.4,0,6.6
		c0,23.1,0,46.2,0,69.3c0,3.7-0.8,7.3-2.7,10.5c-3,5.1-7.5,8.2-13.4,9.3c-1,0.2-2,0.2-3,0.2c-9.1,0-18.1,0-27.2,0
		c-0.1,0-0.1,0-0.2,0c-0.6,0-0.6,0-0.6-0.6c0-1.2,0.1-2.5-0.2-3.7c0.3-0.1,0.6-0.1,0.8-0.1c8.9,0,17.8,0,26.7,0
		c6.6,0,12.4-4.1,14.5-10.4c0.6-1.6,0.8-3.3,0.8-5c0-25.4,0-50.9,0-76.3c0-7.4-5.5-13.9-12.8-15.1c-0.9-0.1-1.8-0.2-2.6-0.2
		c-33.6,0-67.2,0-100.8,0c-7.4,0-13.6,5.1-15.1,12.1c-0.3,1.2-0.4,2.4-0.4,3.6c0,21.3,0,42.6,0,63.9c0,4,0,8,0,11.9
		c-0.1,7.3,5.1,13.6,12.1,15.1c1.1,0.2,2.3,0.4,3.4,0.4c9.1,0,18.1,0,27.2,0C50.4,115.5,50.7,115.5,51,115.5z"/>
	<path class="st0" d="M73.4,95.1c-18.8,0-37.6,0-56.4,0c-1,0-0.9,0.1-0.9-0.9c0-0.8,0-1.6,0-2.4c0-0.3,0.1-0.5,0.4-0.4
		c0.2,0,0.3,0,0.5,0c37.6,0,75.2,0,112.8,0c1,0,0.9-0.2,0.9,0.9c0,0.8,0,1.6,0,2.4c0,0.3-0.1,0.5-0.4,0.4c-0.2,0-0.4,0-0.5,0
		C110.9,95.1,92.2,95.1,73.4,95.1z"/>
	<path class="st0" d="M63.2,119.2c-0.2,5.4-1,10.5-3,15.4c-1,2.5-2.3,4.7-4.2,6.7c-1.5,1.5-3.1,2.7-5.2,3.1
		c-0.7,0.2-1.5,0.2-2.2,0.2c-0.1,0-0.2,0-0.3,0c-1.1-0.3-1.3-1-1.3-2.3c0.1-0.8,0.7-1.4,1.5-1.5c0.6,0,1.3,0,1.9-0.2
		c1.1-0.4,2-1.1,2.8-1.9c1.5-1.6,2.6-3.5,3.4-5.5c1.2-2.8,1.9-5.8,2.3-8.8c0.3-2.2,0.5-4.3,0.4-6.5c0-1.1,0.8-1.9,1.8-1.8
		c0.2,0,0.3,0,0.5,0c0.9,0,1.5,0.6,1.5,1.5C63.2,118.2,63.2,118.8,63.2,119.2z"/>
	<path class="st0" d="M84.2,119.3c0-0.5,0-1,0-1.6c0-1,0.6-1.6,1.6-1.6c0.2,0,0.4,0,0.5,0c1,0,1.6,0.7,1.6,1.7c0,1.4,0,2.8,0.2,4.1
		c0.4,4.5,1.4,8.9,3.4,13c0.7,1.4,1.5,2.6,2.6,3.7c1,1,2.1,1.8,3.5,2.1c0.4,0.1,0.8,0.1,1.1,0.1c1,0,1.6,0.7,1.6,1.6
		c0.1,1.7-0.7,2.3-2.2,2.2c-1.5-0.1-3-0.6-4.3-1.4c-1.6-1-2.8-2.3-3.9-3.7c-1.9-2.6-3.1-5.4-4-8.5c-0.9-3.1-1.5-6.3-1.7-9.5
		C84.2,120.8,84.2,120,84.2,119.3z"/>
	<path class="st0" d="M83,144.6c-6.2,0-12.4,0-18.5,0c-0.1-0.2,0.1-0.3,0.2-0.4c0.7-0.9,1.3-1.9,1.8-2.9c0.2-0.3,0.4-0.4,0.7-0.4
		c4.3,0,8.6,0,12.9,0c0.4,0,0.6,0.1,0.8,0.5C81.5,142.4,82.2,143.5,83,144.6z"/>
	<path class="st0" d="M71.6,115.5c1.4,0,2.7,0,4.1,0c0.1,0.3-0.1,0.6-0.1,0.9c-0.1,1,0,1.9,0,2.9c0,0.5,0,0.5-0.5,0.5
		c-1,0-1.9,0-2.9,0c-0.3,0-0.4-0.1-0.4-0.4C71.8,118.1,71.8,116.8,71.6,115.5z"/>
</g>
</svg>
