<svg xmlns="http://www.w3.org/2000/svg" viewBox="-8679.613 1386.751 153.637 239.434">
  <defs>
    <style>
      .cls-1 {
        fill: #fff100;
      }
    </style>
  </defs>
  <g id="Heart_" data-name="Heart " transform="translate(-9537 -16)">
    <g id="noun_196367_cc" transform="translate(540.529 1303.671)">
      <path id="Path_332" data-name="Path 332" class="cls-1" d="M294.709,157.672a47.768,47.768,0,0,1,17.643-11.72c17.713-12.291,6.705-36.144,6.224-37.163a6.088,6.088,0,0,1,10.98-5.263c4.158,8.648,7.939,24.854,1.522,38.649,26.607-5.708,31.13-25.459,31.333-26.419a6.088,6.088,0,0,1,11.941,2.381c-.19.979-2.1,9.826-10.066,18.879a50.976,50.976,0,0,1-17.584,12.8,67.314,67.314,0,0,1,17.222,13.991,6.088,6.088,0,0,1-9.354,7.795c-.239-.285-12.917-15.092-28.546-15.728-7.918-.295-15.544,3.164-22.654,10.357-21.776,22.028-10.8,59.2-10.686,59.572a6.088,6.088,0,0,1-11.64,3.575C280.488,227.577,267.765,184.923,294.709,157.672Zm35.656,53.468c.092-.574,2.489-14.138,23.3-18.483a6.087,6.087,0,1,0-2.489-11.916c-10.207,2.133-17.216,6.113-22.092,10.44-2.737-12.782-8.737-20.174-9.065-20.57a6.088,6.088,0,0,0-9.384,7.758c.077.1,7.623,9.605,7.623,25.563a103.66,103.66,0,0,1-5.432,32.029,6.089,6.089,0,1,0,11.407,4.263,105.51,105.51,0,0,0,4.1-15.4c4.21,2.559,11.109,7.847,14.021,16.332,2.854,8.316,1.252,17.931-4.763,28.583a3.045,3.045,0,0,0,5.3,3,57.129,57.129,0,0,0,5.493-13.027,18.327,18.327,0,0,1,6.65,9.651c1.258,5.171-.451,11-5.079,17.33a3.044,3.044,0,0,0,4.913,3.594c5.751-7.865,7.792-15.412,6.064-22.424-1.949-7.9-8.172-12.751-11.352-14.776a32.47,32.47,0,0,0-1.473-13.9c-4.075-11.876-14.23-18.379-18.717-20.76.267-1.933.491-3.953.663-6.039A6,6,0,0,0,330.366,211.14Zm50.973,32.241c-2.013-12.877-7.647-30.654-23.034-42.224a3.044,3.044,0,1,0-3.658,4.867c24.241,18.229,24.986,57.672,17.771,79.86-6.917,21.27-31.336,50.951-52.357,47.217-7.428-1.318-16.081-6.058-25.56-13.934-1.88-1.561-4.526,4.247-1.92,6.347,8.078,6.51,17.293,11.959,26.412,13.577a27.936,27.936,0,0,0,4.876.423c8.1,0,19.211-3.406,32.078-16.4,9.882-9.98,18.407-23.525,22.252-35.35C382.465,274.664,383.637,258.071,381.339,243.381Z" transform="translate(88 -1)"/>
    </g>
    <g id="noun_196367_cc-2" data-name="noun_196367_cc" transform="translate(537.529 1304.671)">
      <path id="Path_333" data-name="Path 333" class="cls-1" d="M288.353,313.686a183.394,183.394,0,0,1-17.544-19.464c-2.262-2.869-4.45-5.812-6.567-8.78-.006-.012,0-.021-.009-.034-.163-.347-16.013-34.88,2.391-53.284a3.044,3.044,0,1,0-4.306-4.306c-8.939,8.939-12.364,22.258-9.9,38.517.052.344.114.678.169,1.019-6.313-10.953-10.891-21.282-12.653-29.04-4.662-20.555-.758-43.055,9.943-57.331,7.868-10.5,19.168-16.483,32.674-17.314a3.044,3.044,0,0,0-.374-6.076c-15.344.942-28.2,7.767-37.172,19.739C233.1,193.212,228.88,217.1,234,239.658c3.37,14.853,16.24,38.293,32.029,58.329a193.624,193.624,0,0,0,19.434,21.342C287.667,321.392,290.5,315.718,288.353,313.686Z" transform="translate(88 -1)"/>
    </g>
  </g>
</svg>
