<?xml version="1.0" encoding="utf-8"?>
<!-- Generator: Adobe Illustrator 21.0.0, SVG Export Plug-In . SVG Version: 6.00 Build 0)  -->
<svg version="1.1" id="Layer_1" xmlns="http://www.w3.org/2000/svg" xmlns:xlink="http://www.w3.org/1999/xlink" x="0px" y="0px"
	 viewBox="0 0 110.3 81" style="enable-background:new 0 0 110.3 81;" xml:space="preserve">
<style type="text/css">
	.st0{fill:#241430;}
	.st1{fill:#522F8F;}
</style>
<g id="message-1" transform="translate(-15049.645 6198.752) rotate(-19)">
	<path id="Path_907" class="st0" d="M16327-872.1h-65.8c-1.5,0-2.8-1.2-2.8-2.7c0-1.5,1.2-2.8,2.7-2.8c0,0,0.1,0,0.1,0h65.8
		c0.7-0.1,1.3-0.7,1.2-1.5v-45.8c0.1-0.7-0.5-1.4-1.2-1.5h-61.9c-0.7,0.1-1.3,0.7-1.2,1.5v32.9c0,1.5-1.2,2.8-2.7,2.8
		c-1.5,0-2.8-1.2-2.8-2.7c0,0,0-0.1,0-0.1v-32.9c-0.1-3.8,2.9-6.9,6.7-6.9h61.9c3.8,0.1,6.8,3.2,6.7,6.9v45.8
		C16333.8-875.2,16330.8-872.1,16327-872.1z" fill="#241430" opacity="0.8"/>
	<path id="Path_908" class="st1" d="M16261.2-924.8L16261.2-924.8c0,1.3,0.6,2.6,1.6,3.4l33.3,25.8l33.3-25.8c1-0.8,1.6-2.1,1.6-3.4
		l0,0c0.1-2.3-1.7-4.1-4-4.2l-61.9,0C16262.9-929,16261.1-927.1,16261.2-924.8z" fill="#241430" opacity="0.8" />
	<g id="Group_504" transform="translate(0 103.719)">
		<path id="Path_909" class="st0" d="M16296.1-996.6c-0.6,0-1.2-0.2-1.7-0.6l-33.3-25.8c-1.7-1.3-2.7-3.4-2.7-5.6
			c-0.1-3.8,2.9-6.9,6.7-6.9h61.9c3.8,0.1,6.8,3.2,6.7,6.9c0,2.2-1,4.2-2.7,5.6l-33.3,25.8
			C16297.3-996.8,16296.7-996.6,16296.1-996.6z M16265.2-1030c-0.7,0.1-1.3,0.7-1.2,1.5c0,0.5,0.2,0.9,0.6,1.2l31.6,24.5l31.6-24.5
			c0.4-0.3,0.6-0.8,0.6-1.2c0.1-0.7-0.5-1.4-1.2-1.5L16265.2-1030z" fill="#241430" opacity="0.8"/>
		<path id="Path_910" class="st0" d="M16260.9-1017.6l-24.8,0c-1.5,0-2.8-1.2-2.8-2.7c0-1.5,1.2-2.8,2.7-2.8c0,0,0.1,0,0.1,0l24.8,0
			c1.5,0,2.8,1.2,2.8,2.7c0,1.5-1.2,2.8-2.7,2.8C16261-1017.6,16261-1017.6,16260.9-1017.6z" fill="#241430" opacity="0.8"/>
		<path id="Path_911" class="st0" d="M16260.9-1005.1h-16.7c-1.5,0-2.7-1.3-2.7-2.8c0-1.5,1.2-2.7,2.7-2.7h16.7
			c1.5,0,2.7,1.3,2.7,2.8C16263.6-1006.4,16262.4-1005.2,16260.9-1005.1z"/>
		<path id="Path_912" class="st0" d="M16260.9-992.7h-8.5c-1.5,0-2.7-1.3-2.7-2.8c0-1.5,1.2-2.7,2.7-2.7h8.5c1.5,0,2.7,1.3,2.7,2.8
			C16263.6-993.9,16262.4-992.7,16260.9-992.7z" fill="#241430" opacity="0.8"/>
	</g>
</g>
</svg>
