<?xml version="1.0" encoding="utf-8"?>
<!-- Generator: Adobe Illustrator 21.0.0, SVG Export Plug-In . SVG Version: 6.00 Build 0)  -->
<svg version="1.1" id="Layer_1" xmlns="http://www.w3.org/2000/svg" xmlns:xlink="http://www.w3.org/1999/xlink" x="0px" y="0px"
	 viewBox="0 0 97.5 126.3" style="enable-background:new 0 0 97.5 126.3;" xml:space="preserve">
<path d="M77.4,14.3l-0.7-0.4c-2.7-1.5-5.6-2.3-8.4-2.3c-5.9,0-11.6,3-14.7,8.5L15.9,85.3c-0.3,0.5-0.4,1-0.3,1.5l3.7,23.7
	c0.1,0.7,0.5,1.3,1.1,1.7c0.6,0.4,1.4,0.4,2,0.2l22.3-8.7c0.5-0.2,0.9-0.6,1.2-1l29.3-50.7c0.6-1.1,0.3-2.6-0.9-3.2l-13-7.5
	c-1.1-0.6-2.6-0.3-3.2,0.9c-0.3,0.5-0.4,1.2-0.2,1.8c0.2,0.6,0.6,1.1,1.1,1.4l11,6.3l-27.7,48L23.5,107l-3.1-20l37.2-64.5
	c3.4-5.9,10.9-7.9,16.8-4.5l0.7,0.4c5.9,3.4,7.9,10.9,4.5,16.8l-1.2,2.1c-0.6,1.1-0.3,2.6,0.9,3.2c1.1,0.6,2.6,0.3,3.2-0.9l1.2-2.1
	C88.3,29.4,85.5,19,77.4,14.3z" fill="#241430" opacity="0.8"/>
</svg>
