<svg xmlns="http://www.w3.org/2000/svg" viewBox="0 0 222.56 253.15"><title>problem_solving</title><path d="M148.2,19.23a1.64,1.64,0,0,0-.33.08l-26.6,9.76a1.64,1.64,0,0,0-.33,2.92l22.51,15a1.64,1.64,0,0,0,1.54.13L174.74,35a1.64,1.64,0,0,0,.08-3L149.15,19.4a1.64,1.64,0,0,0-1-.16Z" style="fill:#fff100"/><path d="M125.46,1.57,99.81,11l17.4,13.83,25.22-8.16Z" style="fill:#fff100"/><path d="M4.41,64.91c-.06.08,1.53,9.2,3.52,20.28C11,102.62,11.63,105.45,12.37,106c1,.8,19.53,10.22,20,10.19.18,0-1.09-9.08-2.8-20.15s-3.23-20.4-3.38-20.69C25.91,74.85,4.65,64.6,4.41,64.9Z" style="fill:#fff100"/><path d="M29.68,76.62l.1,1.54C29.83,79,31.26,88.38,33,99l3.11,19.29,11.65,5.93c6.41,3.26,11.68,5.93,11.71,5.86s-1.14-9.46-2.6-20.94L54.2,88.23l-12.27-5.8Z" style="fill:#fff100"/><path d="M175.61,68.7c-2.8.7-42.58,15.71-43.07,16.27-.15.17.49,7.28,1.43,15.81s1.94,18.06,2.23,21.19.74,5.65.92,5.62S146.76,123.7,158,119s20.62-8.6,20.71-8.73c.31-.41-2.64-41.34-3-41.61h-.19Z" style="fill:#fff100"/><path d="M57.21,89.68,60,110.54c2.11,15.66,3,21,3.45,21.41.74.68,24.66,12.92,25.15,12.89.19,0-.74-7.64-2.07-17s-2.57-19-2.75-21.45l-.33-4.52-1.29-.29c-.7-.16-6-2.63-11.79-5.5S59.27,90.64,58.53,90.3l-1.35-.62Z" style="fill:#fff100"/><path d="M128.74,86.49c-2.14.29-41,15.48-41.42,16.2s.22,5.68,2.54,21.88c1.65,11.6,3.17,21.08,3.36,21.05s9.3-3.71,20.25-8.25,20-8.4,20.22-8.64-.67-8.9-1.84-19.17-2.17-19.73-2.23-20.95c-.07-1.91-.19-2.23-.9-2.11Z" style="fill:#fff100"/><path d="M12.75,110.28c-.28.37,5.77,34.87,6.46,36.84.42,1.18,2.23,2.55,10.32,7.65L39.32,161l-.74-6.43c-.44-3.53-1.85-12.69-3.15-20.36l-2.34-14L23,115.1c-5.53-2.82-10.14-5-10.27-4.82Z" style="fill:#fff100"/><path d="M36.72,122.26c0,.1,1.33,9.33,3.07,20.51,2.43,15.7,3.3,20.43,3.83,20.82.37.28,5.5,3.56,11.38,7.28l10.71,6.76-1.16-10c-.62-5.5-1.87-15.33-2.77-21.83L60.18,134,48.48,128c-6.43-3.27-11.72-5.87-11.77-5.76Z" style="fill:#fff100"/><path d="M216.63,98.38c-.54.07-34.21,13.82-34.39,14s2.83,43.64,3,45.13c.07.49.36.74.67.56s7.35-3.24,15.67-6.82,15.36-6.73,15.66-7,.44-7.37.21-21.71c-.18-11.69-.34-21.94-.33-22.78S217,98.34,216.63,98.38Z" style="fill:#fff100"/><path d="M179,113.72l-20.68,8.52c-11.38,4.69-20.77,8.63-20.87,8.75s3.56,35.73,4.45,42l.55,4,19.7-8.59c10.84-4.71,19.82-8.7,19.94-8.9s-2.41-40.8-2.87-44.17l-.22-1.68Z" style="fill:#fff100"/><path d="M63.47,135.77c-.12,0,1.22,10,3,22.26l3.2,22.26,12.75,8,12.75,8-.56-6c-.3-3.29-1.68-14-3-23.8L89,148.69l-12.69-6.46c-6.94-3.58-12.75-6.46-12.86-6.46Z" style="fill:#fff100"/><path d="M134.14,132.49c-.21-.16-40.43,16.2-40.61,16.52,0,.05,1.3,10.57,3,23.36,3,22.95,3,23.26,3.84,22.9l19.9-8.63,19-8.26-.41-4.92C138.11,164.92,134.41,132.69,134.14,132.49Z" style="fill:#fff100"/><path d="M20.28,153.24h0c0,.36,1.31,8,3,17.06l3,16.38,1.33,1.1,9.76,8.06,8.49,7-1.1-8.72c-.6-4.8-1.88-13.29-2.86-18.87l-1.78-10.13-9.88-6.24c-5.58-3.52-9.64-5.82-9.91-5.62Z" style="fill:#fff100"/><path d="M44.06,167.67l1.09,8.67c.6,4.78,1.9,13.46,2.92,19.29l1.83,10.59,11,9,11,9-.57-6.08c-.31-3.34-1.48-12.86-2.67-21.15l-2.09-15.09-11.24-7.12Z" style="fill:#fff100"/><path d="M217,148.38c-1.48.31-5.45,2-15.4,6.31-8.75,3.81-15.95,7-16,7s.48,7.84,1.15,17.32,1.25,18.46,1.31,20c.1,2.58.16,2.74.93,2.31.45-.26,7.11-3.91,14.78-8.1s14.1-7.83,14.31-8.09c.38-.49,0-35.38-.36-36.63,0-.15-.24-.21-.74-.1Z" style="fill:#fff100"/><path d="M182.34,163.22C182,163.1,143,180,142.79,180.36c-.09.13.74,8.46,1.91,18.55s2.17,19.79,2.29,21.65a11.06,11.06,0,0,0,.48,3.34c.14,0,8.7-4.66,19-10.29l18.73-10.24,0-1.48c.05-2.82-2.63-38.53-2.9-38.63Z" style="fill:#fff100"/><path d="M70.11,184.25c-.23-.05,1,9.64,2.67,21.57l3.09,21.66L88.8,238.09c7.1,5.84,13,10.61,13.19,10.6s-.74-8.16-2-18.09-2.66-20.77-3.13-24.11l-.88-6-12.72-8.06c-7-4.45-12.91-8.1-13.14-8.16Z" style="fill:#fff100"/><path d="M139.63,181.85c-.17-.13-11.87,4.88-38.87,16.63-.74.32-.56,1.87,2.61,24.05,1.87,13.1,3.56,23.61,3.77,23.5l19-10.39,18.56-10.11-.38-2.8c-.22-1.54-1.31-11.31-2.43-21.74s-2.13-19-2.23-19.12Z" style="fill:#fff100"/><path d="M42,50.18,26,55.21C17.15,58,9.83,60.41,9.72,60.53s.13.42.54.59,4.61,2.23,9.33,4.45,8.93,4.17,9.34,4.13S36.67,67.12,45.25,64,61,58.31,61.2,58.11s-4.07-2-9.44-4.13Z" style="fill:#fff100"/><path d="M99,72.48l-17.37,7C72,83.33,64.24,86.61,64.27,86.75c.08.37,21.4,10.59,21.93,10.51.25,0,9-3.29,19.39-7.23s19-7.24,19-7.33-5.68-2.42-12.75-5.19Z" style="fill:#fff100"/><path d="M65.41,60.1C64.9,60.3,57.53,62.93,49,66s-15.66,5.56-15.87,5.67,5.69,3.15,13.17,6.73l13.59,6.51,13.35-5.37,17.22-6.93c2.14-.86,3.71-1.7,3.48-1.86s-6.54-2.71-14-5.65C70.66,61.4,66,59.81,65.41,60.1Z" style="fill:#fff100"/><path d="M106.16,38.73,75.83,55.55l30,7.51,30.79-20.42Z" style="fill:#fff100"/><path d="M148.45,20.86l-26.6,9.76,22.52,15,29.76-12.09L148.45,20.86Z" style="fill:#fff100"/><path d="M85.13,21.52,41.2,29,60.28,44.11l42.42-9.76Z" style="fill:#fff100"/><path d="M179.59,28.61,152.26,45.26l28.44,6.32L212.47,33.5Z" style="fill:#fff100"/><path d="M144.88,54.06l-20.57,8.26c-11.31,4.53-20.54,8.37-20.53,8.51s5.79,2.51,12.81,5.25l12.76,5L150.73,73c11.74-4.45,21.43-8.16,21.51-8.29s-6.07-2.58-13.6-5.45l-13.76-5.19Z" style="fill:#fff100"/><path d="M212.64,37.34l-31.31,18.2L184.51,96,213.2,77.69l-.56-40.36Z" style="fill:#fff100"/></svg>