<?xml version="1.0" encoding="utf-8"?>
<!-- Generator: Adobe Illustrator 21.0.0, SVG Export Plug-In . SVG Version: 6.00 Build 0)  -->
<svg version="1.1" id="Layer_1" xmlns="http://www.w3.org/2000/svg" xmlns:xlink="http://www.w3.org/1999/xlink" x="0px" y="0px"
	 viewBox="0 0 79.2 85" style="enable-background:new 0 0 79.2 85;" xml:space="preserve">
<g id="repeat-1" transform="matrix(0.966, -0.259, 0.259, 0.966, -14258.769, 5866.714)">
	<g id="Group_495" transform="translate(28.365 0)">
		<g id="Group_494" transform="translate(0 0)">
			<path id="Path_905" d="M15319.4-1945.1l-12.2-12.2c-1-1-2.7-1-3.7,0c-0.5,0.5-0.8,1.2-0.8,1.9v9.6h-27.8c-9.8,0-17.7,8-17.8,17.8
				c0,1.4,1.1,2.6,2.6,2.7c1.4,0,2.6-1.1,2.7-2.6c0,0,0-0.1,0-0.1c0-6.9,5.6-12.5,12.5-12.5h30.4c1.4,0,2.6-1.2,2.6-2.6v-5.9
				l5.9,5.9l-10.3,10.3c-1,1-1,2.7,0,3.7c1,1,2.7,1,3.7,0l12.2-12.2C15320.4-1942.4,15320.4-1944.1,15319.4-1945.1
				C15319.4-1945.1,15319.4-1945.1,15319.4-1945.1z" fill="#241430" opacity="0.8"/>
		</g>
	</g>
	<g id="Group_497" transform="translate(28.365 38.617)">
		<g id="Group_496" transform="translate(0)">
			<path id="Path_906" d="M15317.5-1958c-1.4,0-2.6,1.2-2.6,2.6c0,6.9-5.6,12.5-12.5,12.5h-30.4c-1.4,0-2.6,1.2-2.6,2.6v5.9
				l-5.9-5.9l10.3-10.3c1-1,1-2.7,0-3.7c-1-1-2.7-1-3.7,0l0,0l-12.2,12.2c-1,1-1,2.6,0,3.7c0,0,0,0,0,0l12.2,12.2
				c0.5,0.5,1.1,0.8,1.8,0.8c0.3,0,0.7-0.1,1-0.2c1-0.4,1.6-1.3,1.6-2.4v-9.6h27.8c9.8,0,17.7-8,17.8-17.8
				C15320.2-1956.9,15319-1958,15317.5-1958C15317.6-1958,15317.5-1958,15317.5-1958z" fill="#241430" opacity="0.8"/>
		</g>
	</g>
	<g id="Group_499" transform="translate(56.893 32.651)">
		<g id="Group_498">

				<ellipse id="Ellipse_95" transform="matrix(0.9659 -0.259 0.259 0.9659 1026.9061 3885.219)" cx="15260.2" cy="-1955.1" rx="2.9" ry="2.9" fill="#241430" opacity="0.8"/>
		</g>
	</g>
	<g id="Group_501" transform="translate(66.002 32.651)">
		<g id="Group_500">

				<ellipse id="Ellipse_96" transform="matrix(0.9659 -0.259 0.259 0.9659 1026.9061 3885.219)" cx="15260.2" cy="-1955.1" rx="2.9" ry="2.9" fill="#241430" opacity="0.8"/>
		</g>
	</g>
	<g id="Group_503" transform="translate(47.785 32.651)">
		<g id="Group_502">

				<ellipse id="Ellipse_97" transform="matrix(0.9659 -0.259 0.259 0.9659 1026.9061 3885.219)" cx="15260.2" cy="-1955.1" rx="2.9" ry="2.9" fill="#241430" opacity="0.8"/>
		</g>
	</g>
</g>
</svg>
