<?xml version="1.0" encoding="utf-8"?>
<!-- Generator: Adobe Illustrator 21.0.0, SVG Export Plug-In . SVG Version: 6.00 Build 0)  -->
<svg version="1.1" id="Layer_1" xmlns="http://www.w3.org/2000/svg" xmlns:xlink="http://www.w3.org/1999/xlink" x="0px" y="0px"
	 viewBox="0 0 152.9 144.3" style="enable-background:new 0 0 152.9 144.3;" xml:space="preserve">
<style type="text/css">
	.st0{fill:#372060;}
	.st1{fill:#FFF100;}
</style>
<path class="st0" d="M13.9,64.3c0-16.2,0-32.5,0-48.7c0-0.8-0.1-0.7,0.7-0.7c15.5,0,30.9,0,46.4,0c2.1,0,3.9,0.7,5.4,2.2
	c1.3,1.2,2,2.7,2.2,4.5c0.1,0.5,0.1,0.9,0.1,1.4c0,30.5,0,61,0,91.5c0,0.8,0,0.8-0.7,0.5c-1.6-0.5-3.3-0.9-4.9-1
	c-0.7-0.1-1.4-0.1-2.2-0.1c-15.4,0-30.9,0-46.3,0c-0.7,0-0.7,0.1-0.7-0.6C13.9,96.8,13.9,80.5,13.9,64.3z M41.4,86.5
	c4.6,0,9.2,0,13.8,0c0.7,0,1.4,0,2.1,0c1.9-0.1,3.5-0.9,4.8-2.2c1.8-1.8,2.4-4.1,1.9-6.6c-0.5-2.5-2-4.3-4.3-5.4c-1-0.4-2-0.6-3-0.6
	c-1.5,0-3.1,0-4.6,0c-8.6,0-17.2,0-25.7,0c-1.3,0-2.6,0.2-3.7,0.9c-2.6,1.5-3.9,3.7-3.9,6.7c0,2.5,1.1,4.4,3.1,5.9
	c1.4,1,2.9,1.4,4.6,1.4C31.3,86.5,36.3,86.5,41.4,86.5z M41.3,58.4c5.1,0,10.1,0,15.2,0c0.6,0,1.2-0.1,1.8-0.2
	c3.6-0.8,5.9-4.1,5.7-7.6c-0.2-2.9-1.6-4.9-4.2-6.2c-1.1-0.6-2.4-0.7-3.6-0.7c-9.5,0-19.1,0-28.6,0c-0.7,0-1.4,0-2.1,0
	c-1,0.1-1.9,0.3-2.7,0.7c-2.7,1.4-4.2,3.6-4.2,6.6c0,2.2,0.8,4,2.4,5.5c1.4,1.3,3.1,1.9,5,1.9C31.2,58.4,36.3,58.4,41.3,58.4z"/>
<path class="st1" d="M77.5,125.5c0.3-0.1,0.4-0.2,0.6-0.3c1.6-1,3.1-2.1,4.7-3.1c2.1-1.3,4.3-2,6.7-2.3c0.6-0.1,1.2-0.1,1.9-0.1
	c17.5,0,35,0,52.4,0c0.7,0,0.6,0.1,0.6-0.7c0-5.6,0-11.2,0-16.8c0-0.2,0-0.5,0.1-0.7c0.2-0.6,0.8-1,1.4-0.9c0.6,0.1,1.1,0.6,1.2,1.2
	c0,0.1,0,0.3,0,0.4c0,6.2,0,12.3,0,18.5c0,0.2,0,0.4,0,0.6c-0.2,0.6-0.6,1-1.2,1c-0.2,0-0.3,0-0.5,0c-18.1,0-36.1,0-54.2,0
	c-5.1,0-9.8,2.9-12.1,7.5c0,0.1-0.1,0.1-0.1,0.2c-0.1,0.3-0.3,0.4-0.6,0.4c-1,0-2,0-3,0c-0.4,0-0.4,0-0.4-0.4c0-0.1,0-0.2,0-0.3
	c0-35.7,0-71.4,0-107.1c0-2.4,0.4-4.6,1.3-6.8c1.5-3.3,3.8-5.9,6.9-7.8c2-1.1,4.1-1.8,6.3-2.1c0.6-0.1,1.1-0.1,1.7-0.1
	c18.1,0,36.2,0,54.3,0c0.4,0,0.8,0,1.1,0.3c0.3,0.3,0.5,0.6,0.5,1c0,0.1,0,0.2,0,0.4c0,24.1,0,48.1,0,72.2c0,0.3,0,0.5-0.1,0.8
	c-0.2,0.6-0.8,1-1.5,0.9c-0.6-0.1-1.1-0.6-1.1-1.3c0-0.2,0-0.4,0-0.5c0-23.5,0-46.9,0-70.4c0-0.8,0.1-0.7-0.7-0.7
	c-17.6,0-35.1,0-52.7,0c-3.7,0-6.8,1.4-9.4,3.9c-2.1,2-3.3,4.5-3.9,7.3c-0.1,0.7-0.2,1.5-0.2,2.2c0,34.3,0,68.5,0,102.8
	C77.5,125.2,77.5,125.3,77.5,125.5z"/>
<path class="st1" d="M68.8,124.7c-0.5-0.3-0.8-0.5-1.2-0.7c-1.5-0.8-3.2-1.3-4.9-1.5c-0.7-0.1-1.3-0.1-2-0.1c-17.9,0-35.7,0-53.6,0
	c-0.2,0-0.3,0-0.5,0c-0.7,0-1.2-0.6-1.3-1.3c0-0.2,0-0.3,0-0.5c0-37.6,0-75.2,0-112.8c0-0.2,0-0.3,0-0.5c0-0.7,0.6-1.3,1.3-1.3
	c0.1,0,0.3,0,0.5,0c18.1,0,36.1,0,54.2,0c4.1,0,7.6,1.4,10.7,4c0.1,0.1,0.2,0.1,0.2,0.2c0.1,0.1,0.1,0.2,0,0.3
	c-0.4,0.7-0.8,1.4-1.2,2.2c-0.2,0-0.3-0.1-0.4-0.2c-2.1-2-4.5-3.2-7.3-3.6c-0.6-0.1-1.2-0.1-1.8-0.1c-17.7,0-35.3,0-53,0
	c-0.6,0-0.6,0-0.6,0.6c0,36.6,0,73.3,0,109.9c0,0.1,0,0.1,0,0.2c0,0.3,0,0.3,0.4,0.3c0.1,0,0.3,0,0.4,0c17.4,0,34.8,0,52.3,0
	c2.6,0,5.1,0.6,7.4,1.7c0.3,0.1,0.4,0.3,0.4,0.7C68.8,123,68.8,123.8,68.8,124.7z"/>
<path class="st1" d="M76.1,136.5c20.2,0,40.4,0,60.7,0c0.2,0,0.4,0,0.5,0c0.7,0,1.3,0.6,1.3,1.3c0,0.7-0.5,1.3-1.3,1.3
	c-0.2,0-0.4,0-0.5,0c-33.8,0-67.6,0-101.5,0c-6.7,0-13.4,0-20.1,0c-0.3,0-0.5,0-0.8-0.1c-0.6-0.2-0.9-0.8-0.9-1.4
	c0.1-0.6,0.6-1.1,1.2-1.1c0.2,0,0.4,0,0.6,0C35.7,136.5,55.9,136.5,76.1,136.5z"/>
<path class="st1" d="M110.9,66.3c-5,0-10.1,0-15.1,0c-0.4,0-0.8-0.1-1.1-0.4c-0.4-0.4-0.5-0.9-0.3-1.4c0.2-0.5,0.6-0.8,1.2-0.9
	c0.1,0,0.2,0,0.3,0c10.1,0,20.2,0,30.3,0c0.2,0,0.5,0,0.7,0.1c0.6,0.2,1,0.8,0.9,1.5c-0.1,0.6-0.6,1.1-1.3,1.1c-0.9,0-1.8,0-2.7,0
	C119.4,66.3,115.1,66.3,110.9,66.3z"/>
<path class="st1" d="M110.9,89.7c5.1,0,10.1,0,15.2,0c0.4,0,0.7,0,1,0.3c0.4,0.4,0.5,0.9,0.4,1.4c-0.2,0.5-0.6,0.8-1.1,0.9
	c-0.1,0-0.2,0-0.3,0c-10.1,0-20.2,0-30.3,0c-0.5,0-0.9-0.1-1.2-0.5c-0.3-0.4-0.4-0.9-0.2-1.4c0.2-0.5,0.6-0.8,1.1-0.8
	c0.1,0,0.3,0,0.4,0C100.9,89.7,105.9,89.7,110.9,89.7z"/>
<path class="st1" d="M110.9,40.4c-4.9,0-9.8,0-14.7,0c-0.3,0-0.5,0-0.8,0c-0.7-0.1-1.2-0.6-1.2-1.3c0-0.7,0.6-1.3,1.3-1.3
	c0.1,0,0.2,0,0.3,0c10,0,20.1,0,30.1,0c0.2,0,0.4,0,0.6,0c0.7,0.2,1.1,0.7,1.1,1.4c0,0.6-0.5,1.1-1.2,1.2c-0.3,0-0.5,0-0.8,0
	C120.7,40.4,115.8,40.4,110.9,40.4z"/>
<path class="st1" d="M41.3,77.7c5,0,10,0,15,0c0.2,0,0.5,0,0.7,0.1c0.6,0.2,1.1,0.7,1.1,1.3c0,0.6-0.4,1.1-1.1,1.3
	c-0.2,0-0.4,0.1-0.6,0.1c-10,0-20.1,0-30.1,0c-0.4,0-0.8,0-1.1-0.3c-0.5-0.3-0.6-0.8-0.5-1.3c0.1-0.5,0.4-0.9,0.9-1
	c0.2-0.1,0.5-0.1,0.7-0.1C31.3,77.7,36.3,77.7,41.3,77.7z"/>
<path class="st1" d="M41.4,52.3c-5,0-10,0-15.1,0c-0.2,0-0.5,0-0.7-0.1c-0.6-0.2-1-0.7-0.9-1.4c0-0.6,0.5-1.1,1.1-1.2
	c0.2,0,0.4-0.1,0.7-0.1c10,0,20,0,29.9,0c0.2,0,0.4,0,0.5,0c0.7,0.1,1.2,0.7,1.2,1.4c0,0.7-0.6,1.3-1.3,1.3c-0.1,0-0.3,0-0.4,0
	C51.3,52.3,46.4,52.3,41.4,52.3z"/>
</svg>
