<?xml version="1.0" encoding="utf-8"?>
<!-- Generator: Adobe Illustrator 21.0.0, SVG Export Plug-In . SVG Version: 6.00 Build 0)  -->
<svg version="1.1" id="Layer_1" xmlns="http://www.w3.org/2000/svg" xmlns:xlink="http://www.w3.org/1999/xlink" x="0px" y="0px"
	 viewBox="0 0 54.8 65.5" style="enable-background:new 0 0 54.8 65.5;" xml:space="preserve">
<style type="text/css">
	.st0{fill:#190E21;}
	.st1{fill:#522F8F;}
</style>
<g id="time" transform="matrix(0.921, -0.391, 0.391, 0.921, -14331.725, 6326.378)">
	<g id="Group_492" transform="translate(92.563 26.363)">
		<path id="Path_897" class="st0" d="M15589.1-180.2h-27.2c-0.9,0-1.6-0.7-1.6-1.6l0,0v-12.8c0-8.4,6.8-15.2,15.2-15.2
			c0.9,0,1.6,0.7,1.6,1.6s-0.7,1.6-1.6,1.6c0,0-0.1,0-0.1,0c-6.6,0-12,5.4-12,12v11.2h24v-11.2c0-2.6-0.8-5.1-2.3-7.1
			c-0.5-0.7-0.4-1.7,0.4-2.2c0.7-0.5,1.7-0.4,2.2,0.3c1.9,2.6,3,5.8,3,9v12.8C15590.7-180.9,15590-180.2,15589.1-180.2
			C15589.1-180.2,15589.1-180.2,15589.1-180.2z" fill="#241430" opacity="0.8"/>
		<path id="Path_898" class="st0" d="M15591.7-180.2h-32.5c-0.9,0-1.6-0.7-1.6-1.6c0-0.9,0.7-1.6,1.6-1.6c0,0,0.1,0,0.1,0h32.5
			c0.9,0,1.6,0.7,1.6,1.6C15593.4-180.9,15592.7-180.2,15591.7-180.2C15591.8-180.2,15591.8-180.2,15591.7-180.2z" fill="#241430" opacity="0.8"/>
	</g>
	<path id="Path_899" class="st1" d="M15668-181.8L15668-181.8c7.5,0,13.6-6.1,13.6-13.6l0,0v-12.8h-27.2v12.8
		C15654.4-187.9,15660.5-181.8,15668-181.8C15668-181.8,15668-181.8,15668-181.8z" fill="#241430" opacity="0.8"/>
	<g id="Group_493" transform="translate(92.563)">
		<path id="Path_900" class="st0" d="M15575.5-180.2c-8.4,0-15.2-6.8-15.2-15.2v-12.8c0-0.9,0.7-1.6,1.6-1.6h27.2
			c0.9,0,1.6,0.7,1.6,1.6v12.8C15590.7-187,15583.9-180.2,15575.5-180.2z M15563.5-206.6v11.2c-0.1,6.6,5.3,12,11.9,12.1
			c6.6,0.1,12-5.3,12.1-11.9c0-0.1,0-0.1,0-0.2v-11.2H15563.5z" fill="#241430" opacity="0.8"/>
		<path id="Path_901" class="st0" d="M15591.7-206.6h-32.5c-0.9,0-1.6-0.7-1.6-1.6s0.7-1.6,1.6-1.6c0,0,0.1,0,0.1,0h32.5
			c0.9,0,1.6,0.7,1.6,1.6S15592.7-206.6,15591.7-206.6C15591.8-206.6,15591.8-206.6,15591.7-206.6z" fill="#241430" opacity="0.8"/>
		<path id="Path_902" class="st0" d="M15575.5-170.2c-0.9,0-1.6-0.7-1.6-1.6v-10c0-0.9,0.7-1.6,1.6-1.6s1.6,0.7,1.6,1.6
			c0,0,0,0.1,0,0.1v10C15577.1-170.9,15576.4-170.2,15575.5-170.2z" fill="#241430" opacity="0.8"/>
		<path id="Path_903" class="st0" d="M15570.2-200.1h-8c-0.9,0-1.6-0.8-1.6-1.6c0-0.9,0.7-1.5,1.6-1.6h8c0.9,0,1.6,0.7,1.6,1.6
			C15571.8-200.8,15571.1-200.1,15570.2-200.1C15570.2-200.1,15570.2-200.1,15570.2-200.1z" fill="#241430" opacity="0.8"/>
		<path id="Path_904" class="st0" d="M15589.1-160.3h-8c-0.9,0-1.6-0.7-1.6-1.6c0-0.9,0.7-1.6,1.6-1.6c0,0,0.1,0,0.1,0h8
			c0.9,0,1.6,0.7,1.6,1.6C15590.8-161.1,15590.1-160.3,15589.1-160.3C15589.2-160.3,15589.1-160.3,15589.1-160.3z" fill="#241430" opacity="0.8"/>
	</g>
</g>
</svg>
